<svg id="Layer_1" data-name="Layer 1" xmlns="http://www.w3.org/2000/svg" viewBox="0 0 197.89 111.39"><defs><style>.cls-1{stroke:#000;stroke-miterlimit:10;}.cls-2{font-size:32px;font-family:JavaneseText, Javanese Text;}.cls-2,.cls-5{fill:#fff;}.cls-3{letter-spacing:0em;}.cls-4{letter-spacing:0.87em;}</style></defs><rect class="cls-1" x="0.5" y="0.5" width="188.24" height="97.39"/><text class="cls-2" transform="translate(7.69 40.34)">Qui<tspan class="cls-3" x="51.11" y="0">c</tspan><tspan x="65.69" y="0">k</tspan><tspan class="cls-4" x="0" y="38.4">	</tspan><tspan class="cls-3" x="36" y="38.4">N</tspan><tspan x="59.91" y="38.4">et</tspan></text><rect class="cls-5" x="133.85" y="18.47" width="7.52" height="7.52"/><rect class="cls-5" x="148.89" y="18.47" width="7.52" height="7.52"/><rect class="cls-5" x="126.34" y="18.47" width="7.52" height="7.52"/><rect class="cls-5" x="156.4" y="18.47" width="7.52" height="7.52"/><rect class="cls-5" x="171.43" y="18.47" width="7.52" height="7.52"/><rect class="cls-5" x="141.37" y="25.99" width="7.52" height="7.52"/><rect class="cls-5" x="111.3" y="25.99" width="7.52" height="7.52"/><rect class="cls-5" x="118.82" y="25.99" width="7.52" height="7.52"/><rect class="cls-5" x="126.34" y="25.99" width="7.52" height="7.52"/><rect class="cls-5" x="163.92" y="25.99" width="7.52" height="7.52"/><rect class="cls-5" x="118.82" y="33.51" width="7.52" height="7.52"/><rect class="cls-5" x="133.85" y="41.02" width="7.52" height="7.52"/><rect class="cls-5" x="141.37" y="41.02" width="7.52" height="7.52"/><rect class="cls-5" x="118.82" y="41.02" width="7.52" height="7.52"/><rect class="cls-5" x="163.92" y="41.02" width="7.52" height="7.52"/><rect class="cls-5" x="133.85" y="48.54" width="7.52" height="7.52"/><rect class="cls-5" x="148.89" y="48.54" width="7.52" height="7.52"/><rect class="cls-5" x="111.3" y="48.54" width="7.52" height="7.52"/><rect class="cls-5" x="163.92" y="48.54" width="7.52" height="7.52"/><rect class="cls-5" x="171.43" y="48.54" width="7.52" height="7.52"/><rect class="cls-5" x="148.89" y="56.06" width="7.52" height="7.52"/><rect class="cls-5" x="111.3" y="56.06" width="7.52" height="7.52"/><rect class="cls-5" x="163.92" y="56.06" width="7.52" height="7.52"/><rect class="cls-5" x="133.85" y="63.57" width="7.52" height="7.52"/><rect class="cls-5" x="141.37" y="63.57" width="7.52" height="7.52"/><rect class="cls-5" x="118.82" y="63.57" width="7.52" height="7.52"/><rect class="cls-5" x="156.4" y="63.57" width="7.52" height="7.52"/><rect class="cls-5" x="148.89" y="71.09" width="7.52" height="7.52"/><rect class="cls-5" x="111.3" y="71.09" width="7.52" height="7.52"/><rect class="cls-5" x="126.34" y="71.09" width="7.52" height="7.52"/><rect class="cls-5" x="163.92" y="71.09" width="7.52" height="7.52"/><rect class="cls-5" x="171.43" y="71.09" width="7.52" height="7.52"/></svg>